<?xml version="1.0" encoding="utf-8"?>
<!-- Generator: Adobe Illustrator 23.0.1, SVG Export Plug-In . SVG Version: 6.00 Build 0)  -->
<svg version="1.1" id="Layer_1" xmlns="http://www.w3.org/2000/svg" xmlns:xlink="http://www.w3.org/1999/xlink" x="0px" y="0px"
	 viewBox="0 0 116.8 35.1" style="enable-background:new 0 0 116.8 35.1;" xml:space="preserve">
<style type="text/css">
	.st0{fill:#67308F;}
	.st1{fill:#FBB03B;}
	.st2{fill:#F3F3F3;}
	.st3{fill:#8DC641;}
	.st4{font-family:'MADEEvolveSansEVO-Medium';}
	.st5{font-size:19.3496px;}
	.st6{letter-spacing:4;}
</style>
<g>
	<path class="st0" d="M13.1,28.5L13.1,28.5c-6.1,0-11-4.9-11-11v0c0-6.1,4.9-11,11-11h0c6.1,0,11,4.9,11,11v0
		C24.1,23.6,19.1,28.5,13.1,28.5z"/>
	<path class="st1" d="M23,17.7L23,17.7c-4.4,0-8-3.6-8-8v0c0-4.4,3.6-8,8-8h0c4.4,0,8,3.6,8,8v0C31,14.1,27.5,17.7,23,17.7z"/>
	<path class="st2" d="M6.5,31.9L6.5,31.9c-2.5,0-4.5-2-4.5-4.5v0C2.1,25,4,23,6.5,23h0C9,23,11,25,11,27.4v0
		C11,29.9,9,31.9,6.5,31.9z"/>
	<path class="st3" d="M6.1,11.5L6.1,11.5c-1.6,0-2.8-1.3-2.8-2.8v0c0-1.6,1.3-2.8,2.8-2.8h0c1.6,0,2.8,1.3,2.8,2.8v0
		C8.9,10.2,7.6,11.5,6.1,11.5z"/>
</g>
<text transform="matrix(1 0 0 1 31.0429 27.0702)"><tspan x="0" y="0" class="st3 st4 st5 st6">LU</tspan><tspan x="31.1" y="0" class="st0 st4 st5 st6">TR</tspan><tspan x="62.3" y="0" class="st1 st4 st5 st6">IX</tspan></text>
</svg>
